<?xml version="1.0" encoding="utf-8"?>
<!-- Generator: Adobe Illustrator 27.2.0, SVG Export Plug-In . SVG Version: 6.00 Build 0)  -->
<svg version="1.1" id="Calque_1" xmlns="http://www.w3.org/2000/svg" xmlns:xlink="http://www.w3.org/1999/xlink" x="0px" y="0px"
	 viewBox="0 0 1600 1600" style="enable-background:new 0 0 1600 1600;" xml:space="preserve">
<style type="text/css">
	.st0{fill:#FF0B53;}
	.st1{fill:#00F0E9;}
</style>
<g id="icon">
	<path class="st0" d="M1388.9,511.6c-155.5,0-281.6-126.1-281.6-281.6H896.2v817.4c0,95-77,172.1-172.1,172.1
		c-95,0-172.1-77-172.1-172.1c0-95,77-172.1,172.1-172.1c17.8,0,38,2.7,54.2,7.7V667.9c-17.7-2.5-35.8-3.8-54.2-3.8
		c-211.7,0-383.3,171.6-383.3,383.3c0,211.7,171.6,383.3,383.3,383.3c211.7,0,383.3-171.6,383.3-383.3V614.8
		c76.8,62.6,174.8,100.2,281.6,100.2V511.6z"/>
	<path class="st1" d="M1329.1,451.8c-155.5,0-281.6-126.1-281.6-281.6H836.3v817.4c0,95-77,172.1-172.1,172.1
		c-95,0-172.1-77-172.1-172.1c0-95,77-172.1,172.1-172.1c17.8,0,38,2.7,54.2,7.7V608.1c-17.7-2.5-35.8-3.8-54.2-3.8
		C452.6,604.3,281,775.9,281,987.5c0,211.7,171.6,383.3,383.3,383.3c211.7,0,383.3-171.6,383.3-383.3V554.9
		c76.8,62.6,174.8,100.2,281.6,100.2V451.8z"/>
	<path d="M1329.1,505.2c-68.1-14.7-127-54-166.9-108.2c-54.2-40-93.5-98.8-108.2-166.9H896.2v817.4c0,95-77,172.1-172.1,172.1
		c-62.9,0-117.8-33.7-147.9-84c-50.3-30-84-85-84-147.9c0-95,77-172.1,172.1-172.1c17.8,0,38,2.7,54.2,7.7v-159
		c-209.1,3-377.6,173.4-377.6,383.2c0,90.6,31.5,173.8,84,239.4c65.6,52.6,148.8,84,239.4,84c211.7,0,383.3-171.6,383.3-383.3V554.9
		c76.8,62.6,174.8,100.2,281.6,100.2V505.2z"/>
</g>
</svg>
