<?xml version="1.0" encoding="utf-8"?>
<!-- Generator: Adobe Illustrator 19.0.0, SVG Export Plug-In . SVG Version: 6.00 Build 0)  -->
<svg version="1.1" id="ableton" xmlns="http://www.w3.org/2000/svg" xmlns:xlink="http://www.w3.org/1999/xlink" x="0px" y="0px"
	 viewBox="2522.1 315.8 343.8 160.4" style="enable-background:new 2522.1 315.8 343.8 160.4;" xml:space="preserve">
<g>
	<path id="logo" d="M2522.1,315.8h22.9v160.4h-22.9V315.8z M2567.9,315.8h22.9v160.4h-22.9V315.8z M2613.8,315.8h22.9v160.4h-22.9
		L2613.8,315.8L2613.8,315.8L2613.8,315.8z M2659.6,315.8h22.9v160.4h-22.9L2659.6,315.8L2659.6,315.8L2659.6,315.8z M2705.5,453.3
		h160.4v22.9h-160.4L2705.5,453.3L2705.5,453.3L2705.5,453.3z M2705.5,407.5h160.4v22.9h-160.4L2705.5,407.5L2705.5,407.5z
		 M2705.5,361.6h160.4v22.9h-160.4L2705.5,361.6L2705.5,361.6z M2705.5,315.8h160.4v22.9h-160.4L2705.5,315.8L2705.5,315.8z"/>
</g>
</svg>
